<?xml version="1.0" encoding="UTF-8"?><svg id="a" xmlns="http://www.w3.org/2000/svg" viewBox="0 0 939 292.8"><defs><style>.b{fill:#CC0001;}</style></defs><path class="b" d="M31.1,0h108.7l15.6,15.6v124.4l-15.6,15.6H31.1v135.8H0V0H31.1Zm0,124.4H124.2V31.1H31.1V124.4Z"/><path class="b" d="M329.3,1.5v31.1h-124.2v99h124.2v31.1h-124.2v99h124.2v31.1H189.5l-15.6-15.6V17.1l15.6-15.6h139.8Z"/><path class="b" d="M487.8,1.5l15.6,15.6V277.3l-15.6,15.6h-139.8V1.5h139.8Zm-108.7,260.2h93.1V32.6h-93.1v229.1Z"/><path class="b" d="M552.5,1.5V292.8h-31.1V1.5h31.1Z"/><path class="b" d="M753.1,0l15.5,15.6v23.3h-31.1v-7.8h-50.4V291.3h-31.1V31.1h-50.4v7.8h-31.1V15.6l15.6-15.6h163.1Z"/><path class="b" d="M923.5,0l15.5,15.6V275.7l-15.5,15.6h-124.2l-15.6-15.6V15.6l15.6-15.6h124.2Zm-108.7,260.4h93.1V31.1h-93.1v229.3Z"/></svg>