<svg xmlns="http://www.w3.org/2000/svg" width="26.115" height="26.159" viewBox="0 0 26.115 26.159">
  <path id="Icon_feather-phone-call" data-name="Icon feather-phone-call" d="M17.387,5.9a5.5,5.5,0,0,1,4.341,4.341M17.387,1.5a9.891,9.891,0,0,1,8.737,8.726M25.025,19v3.3a2.2,2.2,0,0,1-2.4,2.2,21.749,21.749,0,0,1-9.484-3.374,21.43,21.43,0,0,1-6.594-6.594A21.749,21.749,0,0,1,3.177,4.995,2.2,2.2,0,0,1,5.364,2.6h3.3a2.2,2.2,0,0,1,2.2,1.89,14.111,14.111,0,0,0,.769,3.088A2.2,2.2,0,0,1,11.133,9.9l-1.4,1.4a17.584,17.584,0,0,0,6.594,6.594l1.4-1.4A2.2,2.2,0,0,1,20.046,16a14.111,14.111,0,0,0,3.088.769A2.2,2.2,0,0,1,25.025,19Z" transform="translate(-1.667 0.156)" fill="none" stroke="#fff" stroke-linecap="round" stroke-linejoin="round" stroke-width="3"/>
</svg>
